<svg width="133" height="41" viewBox="0 0 133 41" fill="none" xmlns="http://www.w3.org/2000/svg">
<g id="ASHIKUR">
<path d="M18.424 27.736C18.648 28.2773 18.9653 28.8 19.376 29.304C19.7867 29.7893 20.1413 30.1533 20.44 30.396C19.992 31.3293 19.4413 32.0107 18.788 32.44C18.2467 32.7947 17.668 33 17.052 33.056C16.716 33.0933 16.3333 33.0653 15.904 32.972C15.4747 32.8787 15.0267 32.6173 14.56 32.188C14.112 31.74 13.664 31.0307 13.216 30.06C13.0853 29.7427 12.796 29.5187 12.348 29.388C11.9 29.2573 11.424 29.1827 10.92 29.164C10.416 29.1267 10.0053 29.108 9.688 29.108C9.37067 29.108 8.97867 29.1173 8.512 29.136C8.064 29.1547 7.65333 29.2293 7.28 29.36C6.90667 29.4907 6.68267 29.724 6.608 30.06C6.53333 30.3587 6.524 30.6667 6.58 30.984C6.636 31.3013 6.75733 31.5067 6.944 31.6C6.62667 31.8987 6.30933 32.16 5.992 32.384C5.69333 32.608 5.38533 32.7853 5.068 32.916C4.676 33.084 4.26533 33.168 3.836 33.168C3.42533 33.168 2.95867 33.0747 2.436 32.888C2.19333 32.7947 1.94133 32.6267 1.68 32.384C1.41867 32.1413 1.24133 31.8053 1.148 31.376C1.05467 30.9467 1.12933 30.4053 1.372 29.752C1.39067 29.696 1.484 29.3973 1.652 28.856C1.82 28.3147 2.03467 27.6053 2.296 26.728C2.576 25.832 2.87467 24.8427 3.192 23.76C3.528 22.6773 3.864 21.5667 4.2 20.428C4.55467 19.2707 4.89067 18.16 5.208 17.096C5.544 16.032 5.84267 15.0707 6.104 14.212C6.36533 13.3533 6.57067 12.672 6.72 12.168C6.86933 11.664 6.944 11.412 6.944 11.412C7.112 11.3187 7.42 11.2067 7.868 11.076C8.33467 10.9267 8.82933 10.8427 9.352 10.824C9.93067 10.7867 10.4907 10.8613 11.032 11.048C11.592 11.2347 12.0213 11.608 12.32 12.168C12.4507 12.392 12.6467 12.8213 12.908 13.456C13.1693 14.0907 13.4773 14.856 13.832 15.752C14.1867 16.648 14.56 17.6093 14.952 18.636C15.344 19.644 15.7267 20.652 16.1 21.66C16.492 22.6493 16.8467 23.5733 17.164 24.432C17.4813 25.2907 17.752 26.0187 17.976 26.616C18.2 27.1947 18.3493 27.568 18.424 27.736ZM9.604 24.124C10.0893 24.0867 10.3693 23.9467 10.444 23.704C10.5373 23.4613 10.5933 23.1813 10.612 22.864C10.612 22.6587 10.5747 22.4067 10.5 22.108C10.444 21.8093 10.3507 21.548 10.22 21.324C10.108 21.0813 9.95867 20.96 9.772 20.96C9.51067 20.96 9.22133 21.1467 8.904 21.52C8.60533 21.8747 8.43733 22.2387 8.4 22.612C8.344 22.9667 8.372 23.312 8.484 23.648C8.61467 23.984 8.988 24.1427 9.604 24.124ZM31.6269 10.572C32.7282 10.572 33.7829 10.768 34.7909 11.16C35.8175 11.5333 36.6762 12.0373 37.3669 12.672C38.0762 13.3067 38.4962 13.988 38.6269 14.716C38.7202 15.2013 38.6549 15.7427 38.4309 16.34C38.2069 16.9187 37.8522 17.432 37.3669 17.88C36.8815 18.3093 36.2935 18.5427 35.6029 18.58C35.3602 18.58 35.0522 18.552 34.6789 18.496C34.3055 18.44 33.9415 18.328 33.5869 18.16C33.2509 17.992 32.9802 17.7493 32.7749 17.432C33.0549 17.2827 33.2415 17.124 33.3349 16.956C33.4282 16.788 33.4562 16.62 33.4189 16.452C33.3442 16.0787 33.1202 15.7707 32.7469 15.528C32.3922 15.2853 31.9535 15.136 31.4309 15.08C31.1322 15.0427 30.7869 15.052 30.3949 15.108C30.0029 15.1453 29.6389 15.276 29.3029 15.5C28.9855 15.7053 28.7615 16.0507 28.6309 16.536C28.5562 16.816 28.5655 17.124 28.6589 17.46C28.7709 17.7773 29.0322 18.0853 29.4429 18.384C29.8535 18.664 30.4789 18.9067 31.3189 19.112C32.6069 19.4107 33.8015 19.7373 34.9029 20.092C36.0229 20.4467 37.0029 20.8853 37.8429 21.408C38.6829 21.9307 39.3269 22.584 39.7749 23.368C40.2415 24.1333 40.4562 25.0947 40.4189 26.252C40.4002 27.0173 40.1949 27.82 39.8029 28.66C39.4109 29.5 38.8415 30.284 38.0949 31.012C37.3482 31.7213 36.4335 32.3 35.3509 32.748C34.2682 33.196 33.0362 33.42 31.6549 33.42C30.7775 33.42 29.8722 33.3453 28.9389 33.196C28.0055 33.0467 27.1189 32.8133 26.2789 32.496C25.4575 32.1787 24.7295 31.7587 24.0949 31.236C23.5349 30.7507 23.1335 30.144 22.8909 29.416C22.6669 28.688 22.6202 27.96 22.7509 27.232C22.8815 26.4853 23.2082 25.8507 23.7309 25.328C24.2722 24.8053 25.0189 24.516 25.9709 24.46C25.7842 25.02 25.8869 25.5707 26.2789 26.112C26.6895 26.6347 27.2962 27.0827 28.0989 27.456C28.9015 27.8107 29.7789 28.0253 30.7309 28.1C31.7202 28.1747 32.5789 28.1373 33.3069 27.988C34.0535 27.8387 34.4642 27.5307 34.5389 27.064C34.6322 26.504 34.5202 26.056 34.2029 25.72C33.8855 25.384 33.4469 25.132 32.8869 24.964C32.3269 24.7773 31.7202 24.628 31.0669 24.516C30.4135 24.3853 29.8069 24.2547 29.2469 24.124C28.5002 23.9187 27.7442 23.6573 26.9789 23.34C26.2322 23.004 25.5415 22.584 24.9069 22.08C24.2909 21.576 23.7869 20.96 23.3949 20.232C23.0029 19.504 22.7975 18.6547 22.7789 17.684C22.7602 16.5453 22.9935 15.5373 23.4789 14.66C23.9642 13.764 24.6269 13.0173 25.4669 12.42C26.3069 11.804 27.2589 11.3467 28.3229 11.048C29.4055 10.7307 30.5069 10.572 31.6269 10.572ZM61.0232 30.312C61.0418 30.648 61.0885 30.9933 61.1632 31.348C61.2565 31.7027 61.3685 32.02 61.4992 32.3C61.4245 32.3747 61.2285 32.5053 60.9112 32.692C60.5938 32.8787 60.2112 33.0467 59.7632 33.196C59.3152 33.3453 58.8392 33.4013 58.3352 33.364C57.6072 33.308 57.0005 33.0093 56.5152 32.468C56.0485 31.908 55.8152 31.1987 55.8152 30.34C55.7965 30.1533 55.7872 29.9573 55.7872 29.752C55.7872 29.5467 55.7872 29.2853 55.7872 28.968C55.8058 28.1467 55.6378 27.4373 55.2832 26.84C54.9285 26.224 54.4525 25.7573 53.8552 25.44C53.2578 25.104 52.6045 24.936 51.8952 24.936C50.8685 24.936 49.9818 25.244 49.2352 25.86C48.5072 26.476 48.1058 27.372 48.0312 28.548C48.0312 28.716 48.0405 29.0333 48.0592 29.5C48.0965 29.9667 48.1432 30.4333 48.1992 30.9C48.2552 31.3667 48.3112 31.7027 48.3672 31.908C48.1618 32.132 47.8538 32.3653 47.4432 32.608C47.0325 32.832 46.6032 33.0093 46.1552 33.14C45.7072 33.2707 45.3152 33.308 44.9792 33.252C44.4752 33.1587 43.9898 32.8227 43.5232 32.244C43.0565 31.6653 42.8138 30.9467 42.7952 30.088C42.7952 29.92 42.7858 29.4533 42.7672 28.688C42.7672 27.904 42.7578 26.9333 42.7392 25.776C42.7392 24.6187 42.7298 23.3773 42.7112 22.052C42.7112 20.708 42.7018 19.3827 42.6832 18.076C42.6832 16.7693 42.6738 15.5747 42.6552 14.492C42.6552 13.4093 42.6552 12.5413 42.6552 11.888C42.6552 11.2347 42.6552 10.908 42.6552 10.908C42.8605 10.8707 43.2152 10.8613 43.7192 10.88C44.2418 10.8987 44.7925 10.9827 45.3712 11.132C46.0058 11.2813 46.5845 11.5333 47.1072 11.888C47.6298 12.2427 47.9285 12.756 48.0032 13.428C48.0405 13.7453 48.0685 14.0907 48.0872 14.464C48.1058 14.8373 48.1152 15.164 48.1152 15.444C48.1152 15.7053 48.1152 15.836 48.1152 15.836C48.1152 16.564 48.2832 17.2453 48.6192 17.88C48.9552 18.496 49.4125 18.9813 49.9912 19.336C50.5885 19.6907 51.2325 19.8587 51.9232 19.84C52.9125 19.8027 53.6778 19.4853 54.2192 18.888C54.7605 18.2907 55.1618 17.4227 55.4232 16.284C55.4978 15.9667 55.5538 15.5187 55.5912 14.94C55.6285 14.3427 55.6472 13.736 55.6472 13.12C55.6658 12.504 55.6752 11.9813 55.6752 11.552C55.6752 11.1227 55.6752 10.908 55.6752 10.908C55.8805 10.8707 56.2165 10.8613 56.6832 10.88C57.1498 10.8987 57.6445 10.964 58.1672 11.076C58.8205 11.2067 59.4365 11.4587 60.0152 11.832C60.6125 12.1867 60.9485 12.7187 61.0232 13.428C61.0605 13.7827 61.0885 14.352 61.1072 15.136C61.1258 15.92 61.1258 16.8347 61.1072 17.88C61.1072 18.9067 61.0978 20.008 61.0792 21.184C61.0605 22.3413 61.0418 23.4987 61.0232 24.656C61.0045 25.7947 60.9952 26.8587 60.9952 27.848C60.9952 28.8187 61.0045 29.64 61.0232 30.312ZM66.2012 33.252C65.3985 33.1027 64.8292 32.5613 64.4932 31.628C64.1759 30.6947 64.0172 29.5373 64.0172 28.156C64.0172 27.988 64.0079 27.568 63.9892 26.896C63.9892 26.224 63.9799 25.3933 63.9612 24.404C63.9612 23.396 63.9519 22.3133 63.9332 21.156C63.9332 19.9987 63.9239 18.8413 63.9052 17.684C63.8865 16.5267 63.8679 15.4627 63.8492 14.492C63.8305 13.5027 63.8119 12.6907 63.7932 12.056C63.7745 11.4213 63.7559 11.0387 63.7372 10.908C64.0172 10.852 64.4465 10.8427 65.0252 10.88C65.6225 10.8987 66.2385 10.992 66.8732 11.16C67.5265 11.3093 68.0959 11.5707 68.5812 11.944C69.0665 12.2987 69.3465 12.7933 69.4212 13.428C69.4585 13.7267 69.4865 14.24 69.5052 14.968C69.5239 15.6773 69.5332 16.5267 69.5332 17.516C69.5519 18.4867 69.5612 19.5227 69.5612 20.624C69.5612 21.7253 69.5612 22.8173 69.5612 23.9C69.5612 24.964 69.5612 25.9533 69.5612 26.868C69.5612 27.764 69.5612 28.52 69.5612 29.136C69.5799 29.7333 69.5985 30.0973 69.6172 30.228C69.6545 30.62 69.7292 30.9093 69.8412 31.096C69.9532 31.264 70.0745 31.4787 70.2052 31.74C69.7385 32.244 69.1599 32.6547 68.4692 32.972C67.7785 33.2893 67.0225 33.3827 66.2012 33.252Z" fill="#353535"/>
<path d="M88.5045 28.268C89.3258 29.0333 90.0352 29.528 90.6325 29.752C90.5765 29.976 90.4552 30.2747 90.2685 30.648C90.1005 31.0213 89.8765 31.3947 89.5965 31.768C89.3352 32.1413 89.0272 32.4587 88.6725 32.72C88.3178 32.9813 87.9258 33.1213 87.4965 33.14C86.9738 33.1587 86.4978 33.1027 86.0685 32.972C85.6578 32.8227 85.2192 32.58 84.7525 32.244C84.3978 31.964 83.9778 31.6093 83.4925 31.18C83.0258 30.732 82.5685 30.2747 82.1205 29.808C81.6725 29.3413 81.3178 28.9493 81.0565 28.632C80.6832 28.1467 80.2818 27.736 79.8525 27.4C79.4232 27.064 78.9472 26.9333 78.4245 27.008C78.1258 27.0267 77.9392 27.1107 77.8645 27.26C77.8085 27.3907 77.7525 27.6613 77.6965 28.072C77.6592 28.352 77.6498 28.688 77.6685 29.08C77.6872 29.4533 77.7152 29.808 77.7525 30.144C77.8085 30.48 77.8365 30.7227 77.8365 30.872C77.8365 31.208 77.9018 31.4693 78.0325 31.656C78.1632 31.824 78.2938 31.9827 78.4245 32.132C78.1072 32.3747 77.6125 32.636 76.9405 32.916C76.2685 33.196 75.5218 33.336 74.7005 33.336C74.1592 33.336 73.7298 33.1213 73.4125 32.692C73.1138 32.2627 72.8992 31.74 72.7685 31.124C72.6378 30.508 72.5632 29.9107 72.5445 29.332C72.5445 29.164 72.5352 28.7067 72.5165 27.96C72.5165 27.2133 72.5072 26.2893 72.4885 25.188C72.4885 24.068 72.4885 22.8733 72.4885 21.604C72.4885 20.316 72.4792 19.0467 72.4605 17.796C72.4605 16.5267 72.4512 15.3787 72.4325 14.352C72.4325 13.3067 72.4325 12.476 72.4325 11.86C72.4325 11.2253 72.4325 10.908 72.4325 10.908C72.6378 10.8707 72.9925 10.8613 73.4965 10.88C74.0192 10.8987 74.5605 10.9827 75.1205 11.132C75.7552 11.2813 76.3338 11.5333 76.8565 11.888C77.3978 12.2427 77.7058 12.756 77.7805 13.428C77.8178 13.8573 77.8365 14.212 77.8365 14.492C77.8552 14.772 77.8645 15.0613 77.8645 15.36C77.8645 16.3493 78.1072 16.9747 78.5925 17.236C79.1338 17.516 79.8712 17.3293 80.8045 16.676C80.9538 16.564 81.2152 16.3493 81.5885 16.032C81.9618 15.696 82.3912 15.304 82.8765 14.856C83.3618 14.408 83.8658 13.9413 84.3885 13.456C84.9112 12.9707 85.3872 12.5227 85.8165 12.112C86.2645 11.6827 86.6285 11.3373 86.9085 11.076C87.1885 10.8147 87.3285 10.684 87.3285 10.684C87.4965 10.8147 87.7298 11.1227 88.0285 11.608C88.3458 12.0933 88.6258 12.6347 88.8685 13.232C89.1112 13.8293 89.2605 14.4453 89.3165 15.08C89.3912 15.696 89.2698 16.2093 88.9525 16.62C88.8218 16.788 88.6072 17.012 88.3085 17.292C88.0285 17.572 87.7112 17.8707 87.3565 18.188C87.0205 18.4867 86.6938 18.776 86.3765 19.056C86.0592 19.3173 85.8165 19.5227 85.6485 19.672C85.2938 19.9707 84.9952 20.344 84.7525 20.792C84.5285 21.2213 84.3885 21.6693 84.3325 22.136C84.2765 22.6027 84.2952 23.0693 84.3885 23.536C84.4818 24.0027 84.6872 24.432 85.0045 24.824C85.2285 25.0853 85.5645 25.44 86.0125 25.888C86.4605 26.3173 86.9178 26.756 87.3845 27.204C87.8512 27.6333 88.2245 27.988 88.5045 28.268ZM109.266 13.428C109.303 13.8573 109.35 14.5573 109.406 15.528C109.48 16.48 109.536 17.5813 109.574 18.832C109.611 20.0827 109.62 21.3707 109.602 22.696C109.602 24.0027 109.555 25.244 109.462 26.42C109.387 27.596 109.247 28.576 109.042 29.36C108.706 30.648 107.772 31.6373 106.242 32.328C104.711 33.0187 102.788 33.364 100.474 33.364C98.9243 33.364 97.6083 33.0747 96.5256 32.496C95.443 31.9173 94.603 31.124 94.0056 30.116C93.427 29.0893 93.1003 27.9133 93.0256 26.588C92.9883 25.9347 92.9603 25.104 92.9416 24.096C92.923 23.0693 92.9043 21.968 92.8856 20.792C92.8856 19.5973 92.8856 18.4213 92.8856 17.264C92.8856 16.1067 92.8856 15.052 92.8856 14.1C92.9043 13.1293 92.9136 12.3547 92.9136 11.776C92.9136 11.1973 92.9136 10.908 92.9136 10.908C93.119 10.8707 93.4736 10.8613 93.9776 10.88C94.5003 10.8987 95.0416 10.9827 95.6016 11.132C96.2363 11.2813 96.815 11.5333 97.3376 11.888C97.879 12.2427 98.187 12.756 98.2616 13.428C98.3176 13.988 98.3176 14.828 98.2616 15.948C98.2243 17.0493 98.187 18.3187 98.1496 19.756C98.131 21.1747 98.1683 22.6493 98.2616 24.18C98.2803 24.4973 98.2896 24.8613 98.2896 25.272C98.2896 25.6827 98.3456 26.084 98.4576 26.476C98.5883 26.868 98.8403 27.1947 99.2136 27.456C99.6056 27.7173 100.203 27.848 101.006 27.848C101.808 27.848 102.415 27.736 102.826 27.512C103.255 27.288 103.563 26.98 103.75 26.588C103.936 26.196 104.048 25.7387 104.086 25.216C104.142 24.6933 104.188 24.1333 104.226 23.536C104.263 23.144 104.272 22.5653 104.254 21.8C104.254 21.0347 104.244 20.176 104.226 19.224C104.207 18.272 104.179 17.3107 104.142 16.34C104.104 15.3693 104.067 14.4733 104.03 13.652C103.992 12.8307 103.964 12.168 103.946 11.664C103.927 11.16 103.918 10.908 103.918 10.908C104.123 10.8707 104.478 10.8613 104.982 10.88C105.504 10.8987 106.055 10.9827 106.634 11.132C107.268 11.2813 107.847 11.5427 108.37 11.916C108.892 12.2707 109.191 12.7747 109.266 13.428ZM127.263 24.124C127.188 24.1427 127.076 24.2453 126.927 24.432C126.796 24.6187 126.703 24.8147 126.647 25.02C126.554 25.3187 126.582 25.5613 126.731 25.748C127.123 26.2147 127.627 26.7653 128.243 27.4C128.859 28.016 129.475 28.604 130.091 29.164C130.726 29.724 131.267 30.1533 131.715 30.452C131.379 31.348 130.847 32.0667 130.119 32.608C129.41 33.1307 128.616 33.3827 127.739 33.364C126.862 33.3453 126.003 32.9533 125.163 32.188C125.051 32.076 124.836 31.8333 124.519 31.46C124.202 31.068 123.838 30.6107 123.427 30.088C123.016 29.5653 122.606 29.0427 122.195 28.52C121.784 27.9973 121.43 27.54 121.131 27.148C120.832 26.756 120.646 26.5133 120.571 26.42C120.216 25.9533 119.88 25.8507 119.563 26.112C119.246 26.3733 119.05 26.9147 118.975 27.736C118.938 28.2213 118.938 28.7813 118.975 29.416C119.031 30.032 119.106 30.5827 119.199 31.068C119.311 31.5533 119.423 31.8427 119.535 31.936C119.143 32.2347 118.658 32.5147 118.079 32.776C117.5 33.0373 116.838 33.196 116.091 33.252C115.811 33.2707 115.484 33.196 115.111 33.028C114.738 32.86 114.411 32.5893 114.131 32.216C113.87 31.824 113.73 31.3387 113.711 30.76C113.711 30.6107 113.702 30.2187 113.683 29.584C113.683 28.9493 113.674 28.1747 113.655 27.26C113.655 26.3267 113.655 25.3653 113.655 24.376C113.655 23.3867 113.646 22.4533 113.627 21.576C113.627 20.6987 113.627 19.9893 113.627 19.448C113.627 18.9067 113.627 18.636 113.627 18.636C113.627 17.5347 113.599 16.62 113.543 15.892C113.487 15.1453 113.263 14.576 112.871 14.184C112.516 13.8293 112.246 13.316 112.059 12.644C111.891 11.972 111.816 11.3373 111.835 10.74C111.91 10.7587 112.134 10.7867 112.507 10.824C112.88 10.8427 113.244 10.8707 113.599 10.908C113.842 10.908 114.187 10.908 114.635 10.908C115.102 10.8893 115.596 10.8707 116.119 10.852C116.642 10.8333 117.127 10.824 117.575 10.824C118.023 10.8053 118.359 10.7867 118.583 10.768C118.751 10.768 119.059 10.768 119.507 10.768C119.974 10.7493 120.515 10.74 121.131 10.74C121.747 10.74 122.372 10.7493 123.007 10.768C123.642 10.768 124.23 10.7867 124.771 10.824C125.312 10.8613 125.732 10.908 126.031 10.964C127.263 11.188 128.215 11.5987 128.887 12.196C129.559 12.7933 130.035 13.512 130.315 14.352C130.614 15.192 130.791 16.1067 130.847 17.096C130.884 17.936 130.791 18.8133 130.567 19.728C130.343 20.6427 129.96 21.492 129.419 22.276C128.878 23.06 128.159 23.676 127.263 24.124ZM119.031 18.104C119.031 18.7013 119.171 19.1493 119.451 19.448C119.731 19.728 119.992 19.896 120.235 19.952C120.571 20.0267 121 20.036 121.523 19.98C122.046 19.9053 122.568 19.7747 123.091 19.588C123.614 19.3827 124.052 19.1213 124.407 18.804C124.78 18.4867 124.967 18.1227 124.967 17.712C124.967 17.1707 124.743 16.76 124.295 16.48C123.847 16.1813 123.278 15.9947 122.587 15.92C121.915 15.8453 121.243 15.864 120.571 15.976C120.048 16.0507 119.656 16.284 119.395 16.676C119.134 17.068 119.012 17.544 119.031 18.104Z" fill="#F8BC17"/>
</g>
</svg>
